<svg width="89" height="104" viewBox="0 0 89 104" fill="none" xmlns="http://www.w3.org/2000/svg">
<g clip-path="url(#clip0_2247_9732)">
<path d="M45.5939 47.1262L66.4309 61.8504L45.5903 82.5126L45.5939 47.1262Z" fill="#F48C1F"/>
<path d="M22.0418 70.7172L45.5903 82.5127V11.736L22.0418 -0.0594788V70.7172Z" fill="#DE602E"/>
<path d="M4.66912 93.8322V101.623H9.41243V99.7629C9.41243 99.2833 9.49648 98.9429 9.66823 98.7379C9.83999 98.5365 10.1214 98.434 10.516 98.434C10.9107 98.434 11.1994 98.5365 11.3821 98.7415C11.5612 98.9465 11.6525 99.287 11.6525 99.7593V102.966C11.6525 103.343 11.5794 103.592 11.4333 103.717C11.2871 103.841 10.9948 103.903 10.5562 103.903H1.10615C0.653012 103.903 0.331431 103.812 0.137752 103.633C-0.0559272 103.453 -0.154594 103.157 -0.154594 102.747C-0.154594 102.344 -0.0595817 102.055 0.130443 101.879C0.320468 101.703 0.645703 101.619 1.10615 101.619H2.02338V93.8286H1.10615C0.653012 93.8286 0.331431 93.737 0.137752 93.5577C-0.0559272 93.3783 -0.154594 93.0854 -0.154594 92.679C-0.154594 92.2727 -0.0522732 91.9798 0.152369 91.7968C0.357011 91.6137 0.682246 91.5185 1.12807 91.5185H5.56808C6.01391 91.5185 6.33914 91.6101 6.54379 91.7968C6.74843 91.9798 6.85075 92.2763 6.85075 92.679C6.85075 93.0817 6.74843 93.3746 6.54744 93.5577C6.34645 93.7407 6.01756 93.8286 5.56808 93.8286H4.66912V93.8322Z" fill="black"/>
<path d="M15.771 99.7007C15.95 100.473 16.3008 101.052 16.8198 101.436C17.3387 101.82 18.0257 102.011 18.8881 102.011C19.7505 102.011 20.602 101.802 21.4425 101.377C22.283 100.953 22.7909 100.744 22.9663 100.744C23.2221 100.744 23.4341 100.839 23.5985 101.03C23.763 101.22 23.8434 101.465 23.8434 101.765C23.8434 102.421 23.361 102.985 22.3926 103.457C21.4242 103.929 20.2329 104.167 18.8077 104.167C17.1267 104.167 15.76 103.695 14.7039 102.747C13.6515 101.798 13.1252 100.583 13.1252 99.093C13.1252 97.6103 13.6515 96.3949 14.7039 95.4467C15.7563 94.4985 17.1231 94.0263 18.8077 94.0263C20.3096 94.0263 21.5521 94.4692 22.5388 95.3588C23.5254 96.2485 24.0188 97.3357 24.0188 98.6207C24.0188 99.0308 23.9201 99.3126 23.7228 99.4664C23.5254 99.6202 23.1162 99.697 22.4986 99.697H15.771V99.7007ZM21.3913 98.0716C21.2744 97.4236 20.9674 96.9221 20.4777 96.567C19.9881 96.2118 19.3485 96.0325 18.5665 96.0325C17.8101 96.0325 17.1998 96.2009 16.7357 96.5377C16.2716 96.8745 15.9537 97.387 15.771 98.0679H21.3913V98.0716Z" fill="black"/>
<path d="M35.6724 101.623H35.8405C36.2169 101.623 36.502 101.722 36.6993 101.919C36.8966 102.117 36.9953 102.402 36.9953 102.769C36.9953 103.171 36.893 103.464 36.6883 103.64C36.4837 103.816 36.1438 103.907 35.6724 103.907H34.6931C34.3459 103.907 34.0864 103.841 33.9183 103.709C33.7466 103.578 33.6077 103.336 33.4944 102.988C32.9171 103.373 32.3068 103.662 31.66 103.867C31.0132 104.068 30.359 104.171 29.7013 104.171C28.583 104.171 27.7023 103.892 27.0628 103.336C26.4233 102.78 26.1054 102.018 26.1054 101.048C26.1054 100.005 26.5183 99.1918 27.3442 98.6134C28.1701 98.035 29.3322 97.7458 30.8268 97.7458C31.1593 97.7458 31.5138 97.7641 31.8902 97.797C32.2666 97.8336 32.6868 97.8885 33.1509 97.9654V97.7677C33.1509 97.1417 33.0011 96.6658 32.6978 96.3363C32.3945 96.0068 31.9487 95.8457 31.3567 95.8457C30.8999 95.8457 30.3115 96.0178 29.5989 96.3583C28.8863 96.6987 28.3638 96.8708 28.0312 96.8708C27.706 96.8708 27.4392 96.7756 27.2382 96.5852C27.0372 96.3949 26.9349 96.1423 26.9349 95.8274C26.9349 95.2637 27.3479 94.817 28.1701 94.4839C28.9923 94.1544 30.1142 93.9897 31.5321 93.9897C33.0121 93.9897 34.0718 94.2752 34.7113 94.8463C35.3508 95.4174 35.6688 96.3839 35.6688 97.7494V101.623H35.6724ZM33.1509 99.6055C32.8038 99.5286 32.4822 99.4701 32.1935 99.4334C31.9048 99.3968 31.6307 99.3749 31.3822 99.3749C30.6185 99.3749 30.0192 99.503 29.5843 99.7629C29.1494 100.019 28.9338 100.374 28.9338 100.828C28.9338 101.231 29.0727 101.538 29.3504 101.751C29.6282 101.963 30.0265 102.069 30.5491 102.069C31.0278 102.069 31.4809 102 31.9048 101.861C32.3287 101.722 32.7453 101.506 33.1546 101.213V99.6055H33.1509Z" fill="black"/>
<path d="M48.6709 101.623H48.8463C49.2227 101.623 49.504 101.718 49.6904 101.908C49.8768 102.099 49.9718 102.38 49.9718 102.75C49.9718 103.16 49.8731 103.457 49.6758 103.636C49.4785 103.816 49.1423 103.907 48.6709 103.907H47.0739C46.8729 103.907 46.7195 103.867 46.6098 103.786C46.5038 103.706 46.449 103.596 46.449 103.457V102.725C46.1092 103.19 45.6707 103.548 45.1371 103.794C44.6036 104.039 44.0006 104.163 43.3355 104.163C41.9725 104.163 40.8323 103.698 39.9151 102.769C38.9979 101.839 38.5374 100.678 38.5374 99.287C38.5374 97.8373 39.0015 96.6365 39.9297 95.6847C40.8579 94.7328 42.0383 94.2533 43.4671 94.2533C43.9604 94.2533 44.4428 94.3338 44.9106 94.4985C45.3783 94.6633 45.8095 94.8939 46.1969 95.1941V92.5509H44.8119C44.3332 92.5509 43.9897 92.4594 43.7887 92.2727C43.5877 92.0896 43.4854 91.7931 43.4854 91.3904C43.4854 90.9804 43.5877 90.6839 43.7887 90.5045C43.9897 90.3251 44.3295 90.2336 44.8119 90.2336H48.0533C48.2908 90.2336 48.4516 90.2812 48.5393 90.38C48.627 90.4788 48.6709 90.6582 48.6709 90.9218V101.623ZM43.7814 96.4828C43.1017 96.4828 42.5352 96.739 42.0858 97.2515C41.6363 97.7641 41.4134 98.4121 41.4134 99.1992C41.4134 100.008 41.6363 100.667 42.0821 101.18C42.5279 101.692 43.0944 101.949 43.7814 101.949C44.4684 101.949 45.0385 101.692 45.4843 101.176C45.9338 100.66 46.1567 100.005 46.1567 99.2028C46.1567 98.423 45.9301 97.7751 45.4806 97.2589C45.0311 96.7427 44.4647 96.4828 43.7814 96.4828Z" fill="black"/>
<path d="M62.5171 99.093C62.5171 100.583 62.0092 101.802 60.9933 102.747C59.9774 103.695 58.6618 104.167 57.0429 104.167C55.4314 104.167 54.1158 103.695 53.1036 102.747C52.0877 101.798 51.5797 100.583 51.5797 99.093C51.5797 97.603 52.0877 96.3876 53.1036 95.4431C54.1195 94.4985 55.4314 94.0263 57.0429 94.0263C58.6545 94.0263 59.97 94.4985 60.9896 95.4467C62.0092 96.3949 62.5171 97.6103 62.5171 99.093ZM57.0429 102.699C58.1136 102.699 58.9907 102.359 59.674 101.681C60.3574 101.004 60.7009 100.14 60.7009 99.0893C60.7009 98.0386 60.3574 97.171 59.6704 96.4864C58.9834 95.8018 58.1063 95.4577 57.0429 95.4577C55.9795 95.4577 55.1061 95.8018 54.4228 96.4864C53.7394 97.171 53.3959 98.0386 53.3959 99.0893C53.3959 100.147 53.7358 101.011 54.4155 101.685C55.0952 102.362 55.9722 102.699 57.0429 102.699Z" fill="black"/>
<path d="M73.7213 98.0935C73.7213 97.1124 73.6336 96.4498 73.4582 96.1057C73.2827 95.7615 72.9794 95.5895 72.5482 95.5895C72.0366 95.5895 71.6273 95.8128 71.3277 96.2594C71.0244 96.7061 70.8745 97.3174 70.8745 98.0972V102.443H71.0609C71.4812 102.443 71.7625 102.494 71.9051 102.593C72.0476 102.695 72.117 102.882 72.117 103.16C72.117 103.409 72.0585 103.6 71.938 103.724C71.8174 103.849 71.6383 103.911 71.3971 103.911H70.0742C69.7746 103.911 69.5736 103.841 69.464 103.702C69.3543 103.563 69.3032 103.263 69.3032 102.805V102.501V98.0935V97.2772C69.3032 96.7537 69.1862 96.3436 68.9487 96.0398C68.7112 95.7359 68.3896 95.5858 67.9803 95.5858C67.666 95.5858 67.381 95.6773 67.1215 95.864C66.8621 96.0471 66.6355 96.3217 66.4492 96.6841V102.439H66.8329C67.2458 102.439 67.5272 102.49 67.6697 102.596C67.8159 102.703 67.889 102.889 67.889 103.16C67.889 103.446 67.8305 103.644 67.7136 103.75C67.5966 103.86 67.37 103.911 67.0375 103.911H64.2712C64.0008 103.911 63.7998 103.849 63.6719 103.728C63.544 103.607 63.4782 103.417 63.4782 103.16C63.4782 102.882 63.5586 102.692 63.723 102.593C63.8838 102.49 64.2017 102.443 64.6695 102.443H64.8778V95.7396H64.6914C64.2091 95.7396 63.8802 95.6847 63.7011 95.5748C63.522 95.465 63.438 95.271 63.438 94.9927C63.438 94.7511 63.5074 94.5681 63.6463 94.4473C63.7852 94.3265 63.9934 94.2642 64.2712 94.2642H65.8681C66.0983 94.2642 66.2482 94.3045 66.3213 94.385C66.3943 94.4656 66.4382 94.634 66.4528 94.8866C66.7378 94.5827 67.0448 94.3557 67.37 94.213C67.6953 94.0702 68.068 93.9933 68.4773 93.9933C68.9633 93.9933 69.3653 94.0995 69.6832 94.3082C70.0012 94.5205 70.235 94.839 70.3885 95.2673C70.6809 94.8317 71.0171 94.5095 71.4008 94.3008C71.7845 94.0922 72.223 93.9897 72.7163 93.9897C73.6153 93.9897 74.2694 94.2825 74.6824 94.8683C75.0953 95.454 75.3036 96.3985 75.3036 97.7092V102.439H75.468C75.8956 102.439 76.1806 102.49 76.3268 102.596C76.473 102.703 76.5424 102.889 76.5424 103.16C76.5424 103.409 76.4803 103.6 76.356 103.724C76.2318 103.849 76.0454 103.911 75.8042 103.911H74.5435C74.2658 103.911 74.0611 103.827 73.9296 103.662C73.798 103.497 73.7322 103.23 73.7322 102.867V98.0935H73.7213Z" fill="black"/>
<path d="M85.0643 102.582C84.4942 103.098 83.873 103.49 83.2043 103.761C82.5355 104.032 81.8448 104.167 81.1359 104.167C80.1017 104.167 79.2649 103.878 78.629 103.299C77.9932 102.721 77.6753 101.97 77.6753 101.044C77.6753 99.946 78.0992 99.093 78.9433 98.4853C79.7875 97.8812 80.9751 97.5774 82.5026 97.5774C82.9046 97.5774 83.3139 97.603 83.7232 97.6542C84.1325 97.7055 84.5527 97.7897 84.9839 97.8995V97.8263C84.9839 97.0246 84.7939 96.4352 84.4102 96.0508C84.0265 95.6664 83.4345 95.476 82.6269 95.476C82.086 95.476 81.4794 95.6224 80.8143 95.9153C80.1456 96.2082 79.7071 96.3546 79.4915 96.3546C79.2905 96.3546 79.1224 96.2741 78.9908 96.1093C78.8593 95.9446 78.7935 95.7359 78.7935 95.476C78.7935 95.066 79.1772 94.7182 79.9446 94.4326C80.712 94.1471 81.695 94.0043 82.89 94.0043C84.1142 94.0043 85.0387 94.3155 85.6636 94.9378C86.2885 95.5602 86.6028 96.4828 86.6028 97.7018V102.432H87.1144C87.6077 102.432 87.9366 102.483 88.1047 102.589C88.2728 102.695 88.3532 102.882 88.3532 103.153C88.3532 103.402 88.2838 103.592 88.1449 103.717C88.006 103.841 87.7977 103.903 87.52 103.903H85.8829C85.6892 103.903 85.5284 103.845 85.4042 103.728C85.2799 103.611 85.1959 103.439 85.1557 103.215L85.0643 102.582ZM84.9803 99.2943C84.5966 99.1699 84.2275 99.0783 83.8693 99.0161C83.5112 98.9575 83.1567 98.9282 82.8023 98.9282C81.7316 98.9282 80.8874 99.1113 80.2698 99.4701C79.6522 99.8325 79.3416 100.319 79.3416 100.931C79.3416 101.403 79.5353 101.795 79.919 102.099C80.3027 102.406 80.796 102.556 81.3954 102.556C82.2797 102.556 83.0946 102.326 83.8511 101.861C84.6039 101.399 84.9839 100.916 84.9839 100.415V99.2943H84.9803Z" fill="black"/>
</g>
<defs>
<clipPath id="clip0_2247_9732">
<rect width="88.1524" height="104" fill="white"/>
</clipPath>
</defs>
</svg>
