<svg width="16" height="17" viewBox="0 0 16 17" fill="none" xmlns="http://www.w3.org/2000/svg">
<g clip-path="url(#clip0_635_10714)">
<path d="M13.333 0.5H3.33301C2.80257 0.5 2.29387 0.710714 1.91879 1.08579C1.54372 1.46086 1.33301 1.96957 1.33301 2.5V14.5C1.33301 15.0304 1.54372 15.5391 1.91879 15.9142C2.29387 16.2893 2.80257 16.5 3.33301 16.5H14.6663V1.83333C14.6663 1.47971 14.5259 1.14057 14.2758 0.890524C14.0258 0.640476 13.6866 0.5 13.333 0.5V0.5ZM13.333 12.5H5.33301V1.83333H13.333V12.5ZM3.33301 1.83333H3.99967V12.5H3.34434C3.11283 12.502 2.88342 12.5442 2.66634 12.6247V2.5C2.66634 2.32319 2.73658 2.15362 2.8616 2.0286C2.98663 1.90357 3.1562 1.83333 3.33301 1.83333ZM3.33301 15.1667C3.15712 15.1667 2.98835 15.0972 2.86348 14.9733C2.73861 14.8494 2.66775 14.6812 2.66634 14.5053H2.67634C2.67564 14.4173 2.69236 14.3301 2.72555 14.2486C2.75874 14.1671 2.80773 14.0929 2.86971 14.0305C2.93168 13.968 3.00541 13.9184 3.08665 13.8846C3.16788 13.8507 3.25501 13.8333 3.34301 13.8333H13.333V15.1667H3.33301Z" fill="#595959"/>
</g>
<defs>
<clipPath id="clip0_635_10714">
<rect width="16" height="16" fill="white" transform="translate(0 0.5)"/>
</clipPath>
</defs>
</svg>
