<svg width="12" height="12" viewBox="0 0 12 12" fill="none" xmlns="http://www.w3.org/2000/svg">
<g clip-path="url(#clip0_625_10690)">
<path d="M7.10011 8.131C5.64447 7.51391 4.48681 6.35356 3.87311 4.8965L5.57611 3.1935L2.44361 0.061L0.858105 1.6465C0.583008 1.9229 0.365514 2.25115 0.218231 2.61224C0.0709477 2.97332 -0.00319347 3.36005 0.000105441 3.75C0.000105441 7.374 4.62611 12 8.25011 12C8.64006 12.0033 9.02679 11.9292 9.38787 11.7819C9.74895 11.6346 10.0772 11.4171 10.3536 11.142L11.9391 9.5565L8.80661 6.424L7.10011 8.131ZM9.64711 10.435C9.46321 10.6169 9.24503 10.7605 9.00523 10.8575C8.76543 10.9545 8.50876 11.0029 8.25011 11C5.13361 11 1.00011 6.8665 1.00011 3.75C0.997244 3.49143 1.04571 3.23486 1.14269 2.99514C1.23968 2.75543 1.38325 2.53734 1.56511 2.3535L2.44361 1.475L4.16211 3.1935L2.69461 4.661L2.81761 4.968C3.17812 5.93264 3.74178 6.80851 4.47039 7.53626C5.199 8.26401 6.07554 8.82663 7.04061 9.186L7.34361 9.3015L8.80661 7.838L10.5251 9.5565L9.64711 10.435ZM12.0001 1.25V3.5H11.0001V1.7215L8.20461 4.517L7.50011 3.81L10.3076 1H8.50011V0H10.7646C11.0941 0.00224756 11.4092 0.135127 11.6409 0.369477C11.8725 0.603826 12.0017 0.9205 12.0001 1.25Z" fill="#BFBFBF"/>
</g>
<defs>
<clipPath id="clip0_625_10690">
<rect width="12" height="12" fill="white"/>
</clipPath>
</defs>
</svg>
