<svg width="12" height="12" viewBox="0 0 12 12" fill="none" xmlns="http://www.w3.org/2000/svg">
<g clip-path="url(#clip0_625_10675)">
<path d="M10.5 0.500153H1.5C1.10218 0.500153 0.720644 0.658188 0.43934 0.939492C0.158035 1.2208 0 1.60233 0 2.00015L0 11.5002H12V2.00015C12 1.60233 11.842 1.2208 11.5607 0.939492C11.2794 0.658188 10.8978 0.500153 10.5 0.500153V0.500153ZM1.5 1.50015H10.5C10.6326 1.50015 10.7598 1.55283 10.8536 1.6466C10.9473 1.74037 11 1.86754 11 2.00015V2.33365L7.061 6.27315C6.77921 6.55381 6.39771 6.71139 6 6.71139C5.60229 6.71139 5.22079 6.55381 4.939 6.27315L1 2.33365V2.00015C1 1.86754 1.05268 1.74037 1.14645 1.6466C1.24021 1.55283 1.36739 1.50015 1.5 1.50015V1.50015ZM1 10.5002V3.75015L4.232 6.98015C4.70131 7.44828 5.33713 7.71117 6 7.71117C6.66287 7.71117 7.29869 7.44828 7.768 6.98015L11 3.75015V10.5002H1Z" fill="#595959"/>
</g>
<defs>
<clipPath id="clip0_625_10675">
<rect width="12" height="12" fill="white"/>
</clipPath>
</defs>
</svg>
