<svg width="32" height="32" viewBox="0 0 32 32" fill="none" xmlns="http://www.w3.org/2000/svg">
<path d="M2.18181 28.0029H7.27275V15.6392L3.93913 9.81812L0 10.1847V25.8211C0 27.0265 0.976375 28.0029 2.18181 28.0029Z" fill="#0085F7"/>
<path d="M24.7273 28.0029H29.8182C31.0237 28.0029 32 27.0265 32 25.8211V10.1847L28.0666 9.81812L24.7274 15.6392V28.0029H24.7273Z" fill="#00A94B"/>
<path d="M24.7273 6.18475L21.7368 11.8912L24.7273 15.6393L32 10.1847V7.27569C32 4.57931 28.9218 3.03931 26.7636 4.6575L24.7273 6.18475Z" fill="#FFBC00"/>
<path fill-rule="evenodd" clip-rule="evenodd" d="M7.27266 15.6394L4.4231 9.62L7.27266 6.18481L15.9999 12.7303L24.7272 6.18481V15.6394L15.9999 22.1848L7.27266 15.6394Z" fill="#FF4131"/>
<path d="M0 7.27569V10.1847L7.27275 15.6393V6.18475L5.23637 4.6575C3.07819 3.03931 0 4.57931 0 7.27569H0Z" fill="#E51C19"/>
</svg>
