<svg width="12" height="12" viewBox="0 0 12 12" fill="none" xmlns="http://www.w3.org/2000/svg">
<g clip-path="url(#clip0_625_10664)">
<path d="M5.97861 12.0039L5.63007 11.7051C5.14958 11.3028 0.954102 7.67945 0.954102 5.02904C0.954102 2.25409 3.20366 0.00453186 5.97861 0.00453186C8.75356 0.00453186 11.0031 2.25409 11.0031 5.02904C11.0031 7.67947 6.80764 11.3028 6.32914 11.7071L5.97861 12.0039ZM5.97861 1.09098C3.80471 1.09344 2.04303 2.85512 2.04057 5.02902C2.04057 6.69406 4.62179 9.35394 5.97861 10.5714C7.33545 9.35345 9.91665 6.69205 9.91665 5.02902C9.91419 2.85512 8.15253 1.09346 5.97861 1.09098Z" fill="#BFBFBF"/>
<path d="M5.97898 7.02054C4.87901 7.02054 3.9873 6.12884 3.9873 5.02887C3.9873 3.9289 4.87901 3.0372 5.97898 3.0372C7.07895 3.0372 7.97065 3.9289 7.97065 5.02887C7.97065 6.12884 7.07897 7.02054 5.97898 7.02054ZM5.97898 4.03301C5.42899 4.03301 4.98314 4.47887 4.98314 5.02885C4.98314 5.57883 5.42899 6.02469 5.97898 6.02469C6.52896 6.02469 6.97481 5.57883 6.97481 5.02885C6.97481 4.47887 6.52898 4.03301 5.97898 4.03301Z" fill="#BFBFBF"/>
</g>
<defs>
<clipPath id="clip0_625_10664">
<rect width="12" height="12" fill="white"/>
</clipPath>
</defs>
</svg>
