<svg width="16" height="17" viewBox="0 0 16 17" fill="none" xmlns="http://www.w3.org/2000/svg">
<g clip-path="url(#clip0_641_11115)">
<path d="M12.6667 1.83333V0.5H11.3333V1.83333H10V0.5H8.66667V1.83333H7.33333V0.5H6V1.83333H4.66667V0.5H3.33333V1.83333H2V14.5C2 15.0304 2.21071 15.5391 2.58579 15.9142C2.96086 16.2893 3.46957 16.5 4 16.5H12C12.5304 16.5 13.0391 16.2893 13.4142 15.9142C13.7893 15.5391 14 15.0304 14 14.5V1.83333H12.6667ZM12.6667 14.5C12.6667 14.6768 12.5964 14.8464 12.4714 14.9714C12.3464 15.0964 12.1768 15.1667 12 15.1667H4C3.82319 15.1667 3.65362 15.0964 3.5286 14.9714C3.40357 14.8464 3.33333 14.6768 3.33333 14.5V3.16667H12.6667V14.5ZM11.3333 6.5H4.66667V5.16667H11.3333V6.5ZM11.3333 9.16667H4.66667V7.83333H11.3333V9.16667ZM8.66667 11.8333H4.66667V10.5H8.66667V11.8333Z" fill="#595959"/>
</g>
<defs>
<clipPath id="clip0_641_11115">
<rect width="16" height="16" fill="white" transform="translate(0 0.5)"/>
</clipPath>
</defs>
</svg>
