<svg width="16" height="16" viewBox="0 0 16 16" fill="none" xmlns="http://www.w3.org/2000/svg">
  <path d="M15.2933 0.705793C14.8401 0.253258 14.2258 -0.000915527 13.5853 -0.000915527C12.9449 -0.000915527 12.3306 0.253258 11.8773 0.705793L0 12.5831V15.9991H3.416L15.2933 4.12179C15.7457 3.66848 15.9998 3.05421 15.9998 2.41379C15.9998 1.77337 15.7457 1.15911 15.2933 0.705793V0.705793ZM2.86667 14.6658H1.33333V13.1325L10.2067 4.26579L11.74 5.79913L2.86667 14.6658ZM14.3507 3.17913L12.6793 4.85046L11.1493 3.31713L12.82 1.64846C13.0233 1.44513 13.2991 1.3309 13.5867 1.3309C13.8742 1.3309 14.15 1.44513 14.3533 1.64846C14.5567 1.85179 14.6709 2.12757 14.6709 2.41513C14.6709 2.70268 14.5567 2.97846 14.3533 3.18179L14.3507 3.17913Z" fill="#F57C00"/>
</svg>