<svg width="12" height="12" viewBox="0 0 12 12" fill="none" xmlns="http://www.w3.org/2000/svg">
<g clip-path="url(#clip0_626_10695)">
<path d="M1.00391 11.9996H0.00390625V7.9996C0.00483165 6.80701 0.478754 5.66349 1.32171 4.81988C2.16467 3.97627 3.30782 3.50146 4.50041 3.4996L6.92191 3.4226V0.215607L11.5654 4.8621C11.8466 5.14339 12.0046 5.52485 12.0046 5.9226C12.0046 6.32035 11.8466 6.70181 11.5654 6.9831L6.92291 11.6296V8.4226L4.50041 8.4996C3.573 8.50132 2.68412 8.87073 2.02867 9.52683C1.37322 10.1829 1.0047 11.0722 1.00391 11.9996ZM4.50391 7.4996L7.92491 7.4226V9.2156L10.8619 6.2761C10.9556 6.18234 11.0083 6.05518 11.0083 5.9226C11.0083 5.79002 10.9556 5.66286 10.8619 5.5691L7.92241 2.6296V4.4226L4.50041 4.4996C3.57239 4.5004 2.68262 4.8694 2.02641 5.5256C1.3702 6.18181 1.0012 7.07158 1.00041 7.9996V9.1741C1.42146 8.65104 1.95448 8.22907 2.5602 7.93928C3.16592 7.64948 3.82893 7.49924 4.50041 7.4996H4.50391Z" fill="#434343"/>
</g>
<defs>
<clipPath id="clip0_626_10695">
<rect width="12" height="12" fill="white"/>
</clipPath>
</defs>
</svg>
