<svg width="12" height="12" viewBox="0 0 12 12" fill="none" xmlns="http://www.w3.org/2000/svg">
<g clip-path="url(#clip0_635_10704)">
<path d="M11 2H8.5V1C8.5 0.734784 8.39464 0.48043 8.20711 0.292893C8.01957 0.105357 7.76522 0 7.5 0L4.5 0C4.23478 0 3.98043 0.105357 3.79289 0.292893C3.60536 0.48043 3.5 0.734784 3.5 1V2H1V3H2V10.5C2 10.8978 2.15804 11.2794 2.43934 11.5607C2.72064 11.842 3.10218 12 3.5 12H8.5C8.89782 12 9.27936 11.842 9.56066 11.5607C9.84196 11.2794 10 10.8978 10 10.5V3H11V2ZM4.5 1H7.5V2H4.5V1ZM9 10.5C9 10.6326 8.94732 10.7598 8.85355 10.8536C8.75979 10.9473 8.63261 11 8.5 11H3.5C3.36739 11 3.24021 10.9473 3.14645 10.8536C3.05268 10.7598 3 10.6326 3 10.5V3H9V10.5Z" fill="#F5222D"/>
<path d="M5.5 4.99969H4.5V8.99969H5.5V4.99969Z" fill="#F5222D"/>
<path d="M7.50001 4.99969H6.5V8.99969H7.50001V4.99969Z" fill="#F5222D"/>
</g>
<defs>
<clipPath id="clip0_635_10704">
<rect width="12" height="12" fill="white"/>
</clipPath>
</defs>
</svg>
